<svg width="55" height="55" viewBox="0 0 55 55" fill="none" xmlns="http://www.w3.org/2000/svg">
<path d="M3.4375 12.0312V42.9688H51.5625V12.0312H3.4375ZM6.875 15.4688H48.125V39.5312H6.875V15.4688ZM10.3125 18.9062V22.3438H27.5V18.9062H10.3125ZM37.8125 18.9062V20.7333C35.8789 21.0547 34.375 22.6927 34.375 24.707C34.375 26.003 35.0934 27.1906 36.2553 27.7681L41.25 30.293C41.2544 30.3788 41.2408 30.4646 41.21 30.5448C41.1792 30.625 41.1319 30.6978 41.0711 30.7586C41.0103 30.8194 40.9375 30.8667 40.8573 30.8975C40.7771 30.9283 40.6913 30.9419 40.6055 30.9375H38.457C38.3712 30.9419 38.2854 30.9283 38.2052 30.8975C38.125 30.8667 38.0522 30.8194 37.9914 30.7586C37.9306 30.6978 37.8833 30.625 37.8525 30.5448C37.8217 30.4646 37.8081 30.3788 37.8125 30.293V29.2188H34.375V30.293C34.375 32.3073 35.8789 33.9453 37.8125 34.2684V36.0938H41.25V34.2667C43.1836 33.9453 44.6875 32.3073 44.6875 30.293C44.6875 28.997 43.9691 27.8162 42.8072 27.2319L37.8125 24.707C37.8125 24.3237 38.0737 24.0625 38.457 24.0625H40.6055C40.9888 24.0625 41.25 24.3237 41.25 24.707V25.7812H44.6875V24.707C44.6875 22.6927 43.1836 21.0547 41.25 20.7316V18.9062H37.8125ZM10.3125 24.0625V27.5H22.3438V24.0625H10.3125ZM14.6094 29.2188C13.5695 29.2188 12.8373 29.81 12.3527 30.3463C11.8714 30.8842 11.5139 31.4806 11.2252 32.12C10.6477 33.4005 10.3125 34.7841 10.3125 36.0938H13.75C13.75 35.5438 14.0181 34.3475 14.3945 33.5156C14.5028 33.275 14.6094 33.1925 14.7177 33.0327C14.8448 33.2062 14.9377 33.3214 15.0923 33.5689C15.3416 33.9728 15.6166 34.4558 15.9517 34.913C16.2886 35.3684 16.6977 36.1213 17.9936 36.147C19.0145 36.1677 19.3291 35.7981 19.6591 35.5575C19.9856 35.3152 20.2159 35.0866 20.4634 34.858C20.6319 34.7033 20.7659 34.5898 20.8931 34.4833C20.9413 34.5503 21.1286 34.6638 22.0756 35.0728C23.2237 35.5764 24.9631 36.0938 27.5 36.0938V32.6562C25.3859 32.6562 24.2842 32.3125 23.4713 31.9584C22.66 31.6027 22.0413 30.9375 20.625 30.9375C19.5903 30.9375 19.3291 31.3397 19.0128 31.582C18.7309 31.7969 18.5367 32.0255 18.315 32.2266C18.2153 32.065 18.1672 31.9859 18.0469 31.7969C17.7311 31.2533 17.3527 30.7485 16.9194 30.293C16.4209 29.7894 15.6372 29.2188 14.6094 29.2188Z" fill="#4A5397"/>
</svg>
