<svg width="25" height="25" viewBox="0 0 25 25" fill="none" xmlns="http://www.w3.org/2000/svg">
<g clip-path="url(#clip0)">
<path d="M4.47797 23.2049C4.3561 23.8987 5.04047 24.4408 5.6436 24.1315L12.503 20.6065L19.3608 24.1315C19.9639 24.4408 20.6483 23.8987 20.5264 23.2065L19.2295 15.8158L24.7327 10.5721C25.2483 10.0815 24.9827 9.1846 24.292 9.08772L16.6389 8.00022L13.2264 1.23929C13.1614 1.10224 13.0588 0.986448 12.9306 0.905369C12.8024 0.82429 12.6539 0.78125 12.5022 0.78125C12.3505 0.78125 12.2019 0.82429 12.0737 0.905369C11.9455 0.986448 11.843 1.10224 11.778 1.23929L8.36547 8.00179L0.712349 9.08929C0.0232866 9.18616 -0.243901 10.083 0.270162 10.5737L5.77485 15.8174L4.47797 23.208V23.2049ZM12.142 18.8815L6.38266 21.8408L7.46704 15.658C7.49244 15.5157 7.4825 15.3693 7.43809 15.2317C7.39368 15.0942 7.31617 14.9696 7.21235 14.869L2.67172 10.5408L9.00297 9.64085C9.13408 9.62105 9.25842 9.56977 9.36537 9.4914C9.47231 9.41303 9.55867 9.3099 9.61704 9.19085L12.4998 3.47522L15.3858 9.19085C15.4442 9.3099 15.5305 9.41303 15.6375 9.4914C15.7444 9.56977 15.8687 9.62105 15.9998 9.64085L22.3311 10.5393L17.7905 14.8674C17.6864 14.9682 17.6088 15.093 17.5643 15.2309C17.5199 15.3688 17.5101 15.5155 17.5358 15.658L18.6202 21.8408L12.8608 18.8815C12.7494 18.8241 12.6259 18.7941 12.5006 18.7941C12.3753 18.7941 12.2518 18.8241 12.1405 18.8815H12.142Z" fill="#4A5397"/>
</g>
<defs>
<clipPath id="clip0">
<rect width="25" height="25" fill="white"/>
</clipPath>
</defs>
</svg>
