<svg width="20" height="29" viewBox="0 0 20 29" fill="none" xmlns="http://www.w3.org/2000/svg">
<path d="M1.98093 8.28707C1.61266 5.57571 3.3229 3.14021 5.93549 2.24792C6.39911 2.08947 6.89934 2.13457 7.33425 2.37405C7.76916 2.61352 8.10603 3.02934 8.27622 3.53679L9.11495 6.03694C9.24997 6.43915 9.27438 6.87728 9.18506 7.29511C9.09573 7.71294 8.89675 8.0914 8.61364 8.38191L6.11866 10.9359C5.99568 11.0621 5.90404 11.2217 5.85267 11.3993C5.80131 11.5768 5.79198 11.7662 5.82559 11.9489L5.84872 12.061L5.9085 12.3412C6.21878 13.7026 6.69155 15.0111 7.31409 16.2315C7.99223 17.5284 8.8338 18.7094 9.81292 19.7382L9.89005 19.8158C10.0146 19.9394 10.1657 20.0248 10.3286 20.0637C10.4914 20.1026 10.6605 20.0937 10.8194 20.0378L14.0451 18.9019C14.4117 18.7733 14.8043 18.77 15.1726 18.8925C15.5409 19.015 15.868 19.2577 16.1121 19.5895L17.6391 21.6607C18.2754 22.5228 18.1983 23.7902 17.4675 24.551C15.4681 26.6352 12.7186 27.0619 10.8059 25.3441C8.46137 23.2301 6.48491 20.6518 4.97529 17.7381C3.45341 14.8266 2.43686 11.6201 1.979 8.28707H1.98093ZM7.84818 12.0912L9.91511 9.97037C10.4817 9.38959 10.88 8.63279 11.059 7.79712C11.238 6.96145 11.1895 6.08505 10.9197 5.28043L10.0829 2.78028C9.74032 1.7592 9.06237 0.922539 8.18717 0.440783C7.31196 -0.0409729 6.30536 -0.131571 5.37248 0.187452C2.12747 1.29743 -0.477412 4.54978 0.074028 8.61252C0.45965 11.4489 1.34851 15.0569 3.3094 18.8243C4.9381 21.9661 7.0701 24.7461 9.5989 27.0253C12.4679 29.6009 16.2972 28.7215 18.7844 26.1308C20.2614 24.5919 20.4118 22.0357 19.1296 20.2943L17.6025 18.2209C17.114 17.5581 16.4595 17.0735 15.723 16.8293C14.9864 16.585 14.2014 16.5923 13.4686 16.8501L10.7905 17.792C10.099 16.995 9.49331 16.1103 8.98576 15.156C8.49549 14.1912 8.11341 13.1626 7.84818 12.0933V12.0912Z" fill="#4A5397"/>
</svg>
