<svg width="30" height="30" viewBox="0 0 30 30" fill="none" xmlns="http://www.w3.org/2000/svg">
<path d="M15 3.75C15.9271 3.75 16.8334 4.02492 17.6042 4.53999C18.3751 5.05506 18.9759 5.78714 19.3307 6.64367C19.6855 7.5002 19.7783 8.4427 19.5974 9.35199C19.4166 10.2613 18.9701 11.0965 18.3146 11.7521C17.659 12.4076 16.8238 12.8541 15.9145 13.0349C15.0052 13.2158 14.0627 13.123 13.2062 12.7682C12.3496 12.4134 11.6176 11.8126 11.1025 11.0417C10.5874 10.2709 10.3125 9.3646 10.3125 8.4375C10.3125 7.1943 10.8064 6.00201 11.6854 5.12294C12.5645 4.24386 13.7568 3.75 15 3.75ZM15 1.875C13.7021 1.875 12.4333 2.25988 11.3541 2.98098C10.2749 3.70208 9.43374 4.727 8.93704 5.92614C8.44034 7.12528 8.31038 8.44478 8.5636 9.71778C8.81682 10.9908 9.44183 12.1601 10.3596 13.0779C11.2774 13.9957 12.4467 14.6207 13.7197 14.8739C14.9927 15.1271 16.3122 14.9972 17.5114 14.5005C18.7105 14.0038 19.7354 13.1626 20.4565 12.0834C21.1776 11.0042 21.5625 9.73544 21.5625 8.4375C21.5625 6.69702 20.8711 5.02782 19.6404 3.79711C18.4097 2.5664 16.7405 1.875 15 1.875Z" fill="#4A5397"/>
<path d="M24.375 28.125H22.5V23.4375C22.5 22.8219 22.3788 22.2124 22.1432 21.6437C21.9076 21.075 21.5623 20.5582 21.1271 20.1229C20.6918 19.6877 20.175 19.3424 19.6063 19.1068C19.0376 18.8712 18.4281 18.75 17.8125 18.75H12.1875C10.9443 18.75 9.75201 19.2439 8.87294 20.1229C7.99386 21.002 7.5 22.1943 7.5 23.4375V28.125H5.625V23.4375C5.625 21.697 6.3164 20.0278 7.54711 18.7971C8.77782 17.5664 10.447 16.875 12.1875 16.875H17.8125C19.553 16.875 21.2222 17.5664 22.4529 18.7971C23.6836 20.0278 24.375 21.697 24.375 23.4375V28.125Z" fill="#4A5397"/>
</svg>
