<svg width="20" height="20" viewBox="0 0 20 20" fill="none" xmlns="http://www.w3.org/2000/svg">
<g clip-path="url(#clip0)">
<path d="M12.9974 9.99788C12.9974 11.5867 11.653 12.8747 9.99457 12.8747C8.33617 12.8747 6.99177 11.5867 6.99177 9.99788C6.99177 8.40901 8.33617 7.12101 9.99457 7.12101C11.653 7.121 12.9974 8.40903 12.9974 9.99788ZM10 4.00781C8.28292 4.01543 6.5031 4.43345 4.81827 5.23376C3.5673 5.85246 2.34817 6.72536 1.2899 7.80278C0.770133 8.35276 0.107183 9.14913 0 9.99881C0.0126667 10.7348 0.802167 11.6433 1.2899 12.1949C2.28228 13.23 3.46967 14.0785 4.81827 14.7645C6.38945 15.527 8.12853 15.966 10 15.9905C11.7187 15.9827 13.4981 15.5599 15.1811 14.7645C16.4321 14.1458 17.6518 13.2723 18.7101 12.1949C19.2299 11.6449 19.8928 10.8485 20 9.99881C19.9873 9.2628 19.1978 8.3543 18.7101 7.80275C17.7177 6.76765 16.5297 5.91976 15.1811 5.23373C13.6107 4.4718 11.8674 4.0358 10 4.00781ZM9.99873 5.49528C12.6007 5.49528 14.71 7.51185 14.71 9.99946C14.71 12.4871 12.6007 14.5036 9.99873 14.5036C7.39675 14.5036 5.28748 12.487 5.28748 9.99946C5.28748 7.51185 7.39675 5.49528 9.99873 5.49528Z" fill="#CF4C66"/>
</g>
<defs>
<clipPath id="clip0">
<rect width="20" height="20" fill="white"/>
</clipPath>
</defs>
</svg>
