<svg width="25" height="25" viewBox="0 0 25 25" fill="none" xmlns="http://www.w3.org/2000/svg">
<path d="M3.8683 15.1782V17.5592C3.87783 19.233 4.6683 18.9728 5.25402 18.4705L8.63021 15.4222V16.9639C8.63021 18.4103 8.96354 18.7496 10.4159 18.7496H15.7731C15.7731 18.7496 18.8737 22.3955 18.8981 22.3711C19.3445 22.9163 20.5534 22.7306 20.535 21.7258V18.7496H22.3207C23.779 18.7496 24.1064 18.3871 24.1064 16.9639V8.03534C24.1064 6.60677 23.7552 6.24963 22.3207 6.24963H16.3683V5.05915C16.3683 3.58891 16.0945 3.27344 14.5826 3.27344H2.08259C0.677827 3.27344 0.296875 3.57701 0.296875 5.05915V12.7972C0.296875 14.249 0.624256 15.1782 2.08259 15.1782H3.8683ZM18.7493 16.9639V19.774L16.3683 16.9639H11.0112C10.5647 16.9639 10.4159 16.8032 10.4159 16.3687V8.63058C10.4159 8.23177 10.6004 8.03534 11.0112 8.03534H21.7254C22.1356 8.03534 22.3207 8.25558 22.3207 8.59487V16.3687C22.3207 16.7978 22.107 16.9639 21.7254 16.9639H18.7493Z" fill="#4A5397"/>
</svg>
