<svg width="25" height="25" viewBox="0 0 25 25" fill="none" xmlns="http://www.w3.org/2000/svg">
<path d="M20.834 6.24975H18.5632C18.6777 5.92684 18.7507 5.57267 18.7507 5.20809C18.7518 4.53603 18.5359 3.88156 18.1352 3.34204C17.7345 2.80252 17.1703 2.40676 16.5266 2.21365C15.8829 2.02053 15.194 2.04038 14.5625 2.27022C13.9309 2.50007 13.3905 2.92764 13.0215 3.48934L12.5007 4.18725L11.9798 3.47892C11.4173 2.64559 10.4694 2.08309 9.37565 2.08309C7.64648 2.08309 6.25065 3.47892 6.25065 5.20809C6.25065 5.57267 6.32357 5.92684 6.43815 6.24975H4.16732C3.01107 6.24975 2.0944 7.17684 2.0944 8.33309L2.08398 19.7914C2.08398 20.9477 3.01107 21.8748 4.16732 21.8748H20.834C21.9902 21.8748 22.9173 20.9477 22.9173 19.7914V8.33309C22.9173 7.17684 21.9902 6.24975 20.834 6.24975ZM15.6257 4.16642C16.1986 4.16642 16.6673 4.63517 16.6673 5.20809C16.6673 5.781 16.1986 6.24975 15.6257 6.24975C15.0527 6.24975 14.584 5.781 14.584 5.20809C14.584 4.63517 15.0527 4.16642 15.6257 4.16642ZM9.37565 4.16642C9.94857 4.16642 10.4173 4.63517 10.4173 5.20809C10.4173 5.781 9.94857 6.24975 9.37565 6.24975C8.80273 6.24975 8.33398 5.781 8.33398 5.20809C8.33398 4.63517 8.80273 4.16642 9.37565 4.16642ZM20.834 19.7914H4.16732V17.7081H20.834V19.7914ZM20.834 14.5831H4.16732V8.33309H9.45898L7.29232 11.281L8.97982 12.4998L12.5007 7.70809L16.0215 12.4998L17.709 11.281L15.5423 8.33309H20.834V14.5831Z" fill="#4A5397"/>
</svg>
