<svg width="25" height="25" viewBox="0 0 25 25" fill="none" xmlns="http://www.w3.org/2000/svg">
<path d="M22.75 18.1809C23.7156 16.4433 24.2212 14.4878 24.2188 12.5C24.2188 6.02813 18.9719 0.781259 12.5 0.781259C10.5125 0.778796 8.55727 1.28424 6.81993 2.24962L5.96095 1.39102C5.57002 1.00083 5.04024 0.781676 4.4879 0.781676C3.93556 0.781676 3.40578 1.00083 3.01485 1.39102L1.39063 3.01446C1.00041 3.40546 0.781252 3.9353 0.781252 4.4877C0.781252 5.04011 1.00041 5.56995 1.39063 5.96095L2.24962 6.81993C1.28424 8.55727 0.778796 10.5125 0.781259 12.5C0.781259 18.9719 6.02735 24.2188 12.5 24.2188C14.4876 24.2213 16.4428 23.7157 18.1801 22.75L19.0391 23.609C19.4301 23.9992 19.9599 24.2184 20.5123 24.2184C21.0647 24.2184 21.5946 23.9992 21.9856 23.609L23.609 21.9856C23.9992 21.5946 24.2184 21.0647 24.2184 20.5123C24.2184 19.9599 23.9992 19.4301 23.609 19.0391L22.75 18.1809ZM2.61798 4.73321C2.55305 4.66792 2.5166 4.57959 2.5166 4.48751C2.5166 4.39543 2.55305 4.30709 2.61798 4.24181L4.2422 2.61759C4.30737 2.55259 4.39566 2.51608 4.4877 2.51608C4.57975 2.51608 4.66804 2.55259 4.73321 2.61759L5.34063 3.2254C4.54867 3.83788 3.83788 4.54867 3.2254 5.34063L2.61798 4.73321ZM12.5 21.6555C7.44415 21.6555 3.34493 17.5567 3.34493 12.5C3.34493 7.44376 7.44415 3.34493 12.5 3.34493C17.5559 3.34493 21.6555 7.44376 21.6555 12.5C21.6555 17.5567 17.5559 21.6555 12.5 21.6555ZM22.3824 20.7582L20.7574 22.3824C20.6923 22.4473 20.6041 22.4837 20.5121 22.4837C20.4202 22.4837 20.332 22.4473 20.2668 22.3824L19.6594 21.7742C20.4514 21.1621 21.1621 20.4514 21.7742 19.6594L22.3824 20.2668C22.4474 20.3321 22.4838 20.4204 22.4838 20.5125C22.4838 20.6046 22.4474 20.6929 22.3824 20.7582Z" fill="#4A5397"/>
<path d="M16.2347 12.1216C17.321 14.408 17.8277 15.1708 19.7718 13.599C21.7144 12.0283 22.6152 8.231 15.4652 4.43218C13.521 3.39936 10.4152 5.356 10.7656 7.00444C11.1167 8.65366 15.1503 9.83608 16.2347 12.1216ZM19.7824 10.2263C21.1089 10.2263 18.9675 10.9533 17.6909 12.0556C17.0722 12.59 17.3699 10.2263 19.7824 10.2263ZM18.012 7.30014C19.3394 7.30014 17.198 8.02592 15.9214 9.12905C15.3046 9.66264 15.5984 7.30014 18.012 7.30014ZM15.1581 5.39389C16.4843 5.39389 14.3425 6.12085 13.0683 7.22163C12.4488 7.756 12.7449 5.39389 15.1581 5.39389Z" fill="#4A5397"/>
<path d="M16.5626 16.785C14.9771 17.9127 14.0044 19.2487 14.3853 19.7706C15.0712 20.7135 15.0712 20.7135 17.9408 18.6713C19.524 17.5452 20.499 16.2077 20.1181 15.6866C19.4291 14.744 19.4291 14.744 16.5626 16.785Z" fill="#4A5397"/>
<path d="M16.6193 16.2668C17.3428 16.2949 16.8916 15.6239 16.9748 14.7789C17.0564 13.9336 16.3689 14.3668 15.0736 14.2914C13.7768 14.216 14.1537 15.2367 14.2061 16.0524C14.2588 16.8676 14.7568 16.1977 16.6193 16.2668Z" fill="#4A5397"/>
<path d="M11.8639 16.8969C11.4217 16.6215 11.0478 16.2453 10.715 15.8211C11.015 15.9426 11.3795 16.0125 11.7568 16.0844C11.9205 16.1157 12.0842 16.1469 12.2389 16.1821C12.408 16.2211 12.5389 16.2391 12.6502 16.2391C13.2572 16.2391 13.3236 15.7243 13.3635 15.416C13.3994 15.1375 13.449 14.7555 13.699 14.2512C13.8303 13.9848 13.785 13.7836 13.7236 13.6614C13.5627 13.3379 13.1814 13.2653 12.6994 13.1739C12.4307 13.1227 12.126 13.0649 11.8228 12.9602C11.6033 12.8844 11.4303 12.8493 11.2775 12.8493C10.6924 12.8493 10.5467 13.3399 10.44 13.6977C10.3783 13.9051 10.3084 14.141 10.1705 14.3996C10.1019 14.5262 10.0552 14.6634 10.0322 14.8055C9.15253 13.3149 8.53417 11.661 7.4912 11.277C7.46698 11.2684 7.44159 11.2657 7.41737 11.2582C7.43456 11.2203 7.4455 11.1864 7.46503 11.1469C7.59628 10.8809 7.55097 10.6793 7.48964 10.5571C7.3662 10.3094 7.11347 10.209 6.78573 10.1344C7.16659 9.77542 7.6705 9.24574 8.38534 8.49183C8.4412 8.43324 8.49355 8.37464 8.54706 8.31566C8.50605 8.42034 8.45722 8.53011 8.39589 8.64417C8.18417 9.04105 8.30097 9.27894 8.57831 9.43909C8.38339 9.49964 8.24315 9.59769 8.17948 9.73909C7.65995 10.893 7.65995 10.893 11.1029 12.4993C13.0025 13.386 14.7771 13.5879 15.065 12.9516C15.5853 11.795 15.5853 11.795 12.1416 10.1903C11.7121 9.98875 11.2696 9.81623 10.817 9.67386C10.8826 9.39964 10.8584 8.88636 11.2307 8.13753C11.4908 7.60941 10.5541 7.72542 9.57753 7.38988C9.48769 7.35863 9.41112 7.33909 9.34159 7.32425C10.0471 6.30706 10.3318 5.40941 9.98222 5.08441C9.11034 4.2762 9.11034 4.2762 6.64198 6.87659C5.61855 7.95394 4.96972 9.07542 4.91034 9.75941C4.43886 9.8305 4.30448 10.2653 4.20683 10.593C4.14511 10.8008 4.07519 11.0364 3.9373 11.2953C3.75917 11.6293 3.73339 11.9332 3.86073 12.1989C3.98066 12.4489 4.20683 12.6071 4.49042 12.7203C4.06855 13.375 3.88261 14.1457 4.1705 14.8535C6.94589 21.6817 10.9412 21.5895 12.8303 20.2004C14.7205 18.8118 14.0217 18.2395 11.8639 16.8969ZM5.23534 15.341C5.59941 13.2653 8.04511 13.436 7.40878 13.8707C6.09667 14.7707 5.03339 16.4809 5.23534 15.341ZM8.73808 16.2575C7.42597 17.1571 6.36386 18.866 6.56464 17.7278C6.92987 15.65 9.37519 15.8211 8.73808 16.2575ZM11.0978 18.0032C9.78573 18.9028 8.72441 20.6125 8.92441 19.4743C9.29042 17.3973 11.7342 17.5684 11.0978 18.0032Z" fill="#4A5397"/>
</svg>
