<svg width="35" height="35" viewBox="0 0 35 35" fill="none" xmlns="http://www.w3.org/2000/svg">
<path d="M17.5 18.9609C19.9162 18.9609 21.875 17.0022 21.875 14.5859C21.875 12.1697 19.9162 10.2109 17.5 10.2109C15.0838 10.2109 13.125 12.1697 13.125 14.5859C13.125 17.0022 15.0838 18.9609 17.5 18.9609Z" stroke="#4A5397" stroke-width="2.08333" stroke-linecap="round" stroke-linejoin="round"/>
<path d="M17.5007 2.91797C14.4065 2.91797 11.439 4.14713 9.25107 6.33506C7.06315 8.52298 5.83398 11.4904 5.83398 14.5846C5.83398 17.3438 6.42023 19.1492 8.02148 21.1471L17.5007 32.0846L26.9798 21.1471C28.5811 19.1492 29.1673 17.3438 29.1673 14.5846C29.1673 11.4904 27.9382 8.52298 25.7502 6.33506C23.5623 4.14713 20.5948 2.91797 17.5007 2.91797V2.91797Z" stroke="#4A5397" stroke-width="2.08333" stroke-linecap="round" stroke-linejoin="round"/>
</svg>
