<svg width="35" height="35" viewBox="0 0 35 35" fill="none" xmlns="http://www.w3.org/2000/svg">
<path d="M23.7992 16.1H22.3992V13.3C22.3992 10.57 20.2292 8.4 17.4992 8.4C14.7692 8.4 12.5992 10.57 12.5992 13.3V16.1H11.1992V13.3C11.1992 9.8 13.9992 7 17.4992 7C20.9992 7 23.7992 9.8 23.7992 13.3V16.1Z" fill="#4A5397"/>
<path d="M23.1008 27.9984H11.9008C10.7108 27.9984 9.80078 27.0884 9.80078 25.8984V17.4984C9.80078 16.3084 10.7108 15.3984 11.9008 15.3984H23.1008C24.2908 15.3984 25.2008 16.3084 25.2008 17.4984V25.8984C25.2008 27.0884 24.2908 27.9984 23.1008 27.9984ZM11.9008 16.7984C11.4808 16.7984 11.2008 17.0784 11.2008 17.4984V25.8984C11.2008 26.3184 11.4808 26.5984 11.9008 26.5984H23.1008C23.5208 26.5984 23.8008 26.3184 23.8008 25.8984V17.4984C23.8008 17.0784 23.5208 16.7984 23.1008 16.7984H11.9008Z" fill="#4A5397"/>
<path d="M17.5016 20.9992C18.2748 20.9992 18.9016 20.3724 18.9016 19.5992C18.9016 18.826 18.2748 18.1992 17.5016 18.1992C16.7284 18.1992 16.1016 18.826 16.1016 19.5992C16.1016 20.3724 16.7284 20.9992 17.5016 20.9992Z" fill="#4A5397"/>
<path d="M17.8492 19.6016H17.1492L16.4492 23.8016H18.5492L17.8492 19.6016Z" fill="#4A5397"/>
</svg>
