<svg width="35" height="35" viewBox="0 0 35 35" fill="none" xmlns="http://www.w3.org/2000/svg">
<path d="M27.5247 6.5625C29.6393 6.5625 31.3529 8.27604 31.3529 10.3906V24.6094C31.3529 26.724 29.6393 28.4375 27.5247 28.4375H7.47266C6.45737 28.4375 5.48368 28.0342 4.76576 27.3163C4.04785 26.5984 3.64453 25.6247 3.64453 24.6094V10.3906C3.64453 8.27604 5.35807 6.5625 7.47266 6.5625H27.5247ZM29.5299 13.3809L17.9377 19.7568C17.8184 19.8224 17.6859 19.8604 17.55 19.8681C17.4142 19.8758 17.2783 19.8529 17.1523 19.8013L17.0597 19.7575L5.46745 13.3802V24.6094C5.46745 25.1412 5.67871 25.6512 6.05476 26.0273C6.43081 26.4033 6.94084 26.6146 7.47266 26.6146H27.5247C28.0566 26.6146 28.5666 26.4033 28.9426 26.0273C29.3187 25.6512 29.5299 25.1412 29.5299 24.6094V13.3809ZM27.5247 8.38542H7.47266C6.94084 8.38542 6.43081 8.59668 6.05476 8.97273C5.67871 9.34878 5.46745 9.85881 5.46745 10.3906V11.3014L17.4987 17.9178L29.5299 11.3006V10.3906C29.5299 9.85881 29.3187 9.34878 28.9426 8.97273C28.5666 8.59668 28.0566 8.38542 27.5247 8.38542Z" fill="#4A5397"/>
</svg>
