<svg width="23" height="35" viewBox="0 0 23 35" fill="none" xmlns="http://www.w3.org/2000/svg">
<g clip-path="url(#clip0)">
<path d="M18.7315 0H3.30556C1.48061 0 0 1.46973 0 3.28125V31.7188C0 33.5303 1.48061 35 3.30556 35H18.7315C20.5564 35 22.037 33.5303 22.037 31.7188V3.28125C22.037 1.46973 20.5564 0 18.7315 0ZM11.0185 32.8125C9.79959 32.8125 8.81481 31.835 8.81481 30.625C8.81481 29.415 9.79959 28.4375 11.0185 28.4375C12.2374 28.4375 13.2222 29.415 13.2222 30.625C13.2222 31.835 12.2374 32.8125 11.0185 32.8125ZM18.7315 25.4297C18.7315 25.8809 18.3596 26.25 17.9051 26.25H4.13194C3.67743 26.25 3.30556 25.8809 3.30556 25.4297V4.10156C3.30556 3.65039 3.67743 3.28125 4.13194 3.28125H17.9051C18.3596 3.28125 18.7315 3.65039 18.7315 4.10156V25.4297Z" fill="#4A5397"/>
</g>
<defs>
<clipPath id="clip0">
<rect width="22.037" height="35" fill="white"/>
</clipPath>
</defs>
</svg>
