<svg width="45" height="45" viewBox="0 0 45 45" fill="none" xmlns="http://www.w3.org/2000/svg">
<path d="M7.71313 37.8034C8.38959 37.8034 8.93797 37.4295 8.93797 36.9681C8.93797 36.5068 8.38959 36.1328 7.71313 36.1328C7.03666 36.1328 6.48828 36.5068 6.48828 36.9681C6.48828 37.4295 7.03666 37.8034 7.71313 37.8034Z" fill="#4A5397"/>
<path d="M43.5938 32.8141L43.1339 32.5441C43.0988 32.5237 39.5852 30.439 38.712 27.9091L38.5172 27.3487L38.1572 27.8191C38.1459 27.8339 37.6467 28.4512 36.2496 29.1755C35.2153 23.2882 31.6969 16.2598 27.0731 13.263C28.395 13.3699 29.7211 13.2602 31.0008 12.7948C31.7714 12.5149 31.4388 11.2591 30.6612 11.5432C29.6121 11.925 28.5609 12.0291 27.5119 11.9756C30.0874 9.61523 32.1096 5.99766 32.1096 3.3525C32.1096 2.71688 32.1096 1.53352 31.1674 1.53352C30.7891 1.53352 30.4833 1.76977 30.0607 2.09602C29.4124 2.59594 28.4337 3.3525 26.9958 3.3525C26.448 3.3525 25.4454 2.77453 24.6396 2.31047C23.6658 1.75008 23.0435 1.40625 22.5204 1.40625C21.6541 1.40625 20.3808 2.10656 19.2572 2.72461C18.8002 2.97562 18.1751 3.32016 18.0457 3.3532C16.4173 3.3532 15.4716 2.60227 14.8444 2.10516C14.4787 1.81406 14.2137 1.60312 13.86 1.60312C12.9333 1.60312 12.9333 2.71477 12.9333 4.00219C12.9333 6.48703 14.8261 9.76711 17.3046 11.9714C15.743 12.0832 14.2031 12.555 13.121 13.6034C12.5234 14.1813 13.429 15.0982 14.0245 14.5216C14.9238 13.6498 16.103 13.2764 17.3644 13.204C17.4002 13.3327 17.4438 13.4592 17.4973 13.5837C12.2126 17.3813 8.45859 26.3988 8.45859 32.4865C8.45859 33.087 8.505 33.6305 8.57672 34.1423C7.21406 33.537 6.71695 33.0061 6.70711 32.9941L6.3443 32.5758L6.1657 33.1031C5.37609 35.4263 1.94344 37.4414 1.90898 37.4618L1.40625 37.7536L1.91742 38.0299C2.09672 38.127 2.27461 38.212 2.45391 38.3041L2.13047 38.5284L2.30133 40.6659L15.698 43.5938L20.7773 40.3446C21.2899 40.3474 21.8088 40.3488 22.3369 40.3488L28.2741 43.5938L41.696 39.375V37.1187L41.3409 36.9056C41.5181 36.7931 41.6953 36.6785 41.8718 36.5604L42.3422 36.2461L42.2388 36.1955L42.8372 36.0316L42.9384 33.686L42.5925 33.4406C42.7767 33.3302 42.9602 33.2177 43.1445 33.101L43.5938 32.8141V32.8141ZM14.2123 4.00219C14.2123 3.69 14.2165 3.44672 14.2228 3.25758C14.3304 3.34195 14.4555 3.43406 14.5891 3.52898C14.9991 4.51055 15.7746 5.92383 17.0895 6.81398C18.687 7.8968 18.4746 6.65227 19.3268 5.51602C20.179 4.38047 20.7555 3.78563 22.1829 6.70641C22.8052 7.97977 23.8423 4.42125 24.828 3.90164C25.0889 4.04367 25.3491 4.17586 25.6043 4.28836C27.372 7.16273 28.1911 6.26625 29.7612 3.87703C30.1929 3.62391 30.5473 3.3525 30.8292 3.13523C30.8306 3.20063 30.832 3.27305 30.832 3.35391C30.832 5.61094 28.9877 8.84812 26.7293 10.9596C26.6227 10.6886 26.4699 10.4381 26.2779 10.2192C25.3659 9.18633 23.9407 10.3317 23.265 11.0834C22.0662 10.698 20.1129 9.63703 18.8402 10.2445C18.5233 10.3916 18.2322 10.5889 17.9782 10.8288C15.897 8.9318 14.2123 6.19312 14.2123 4.00219V4.00219ZM25.6057 11.7183C25.2904 11.6514 24.977 11.5764 24.6656 11.4933C25.058 11.1551 25.418 11.037 25.5691 11.5397C25.5853 11.5945 25.5952 11.6571 25.6057 11.7183V11.7183ZM20.262 12.1549C20.0292 12.1106 19.7902 12.0705 19.5441 12.0389C19.3575 11.9219 19.1748 11.7988 18.9963 11.6698C19.639 11.2388 20.7471 11.468 21.806 11.8273C21.2836 11.88 20.7682 11.9939 20.262 12.1549V12.1549ZM20.5812 14.0112C20.1874 14.1096 19.7585 14.0702 19.388 13.9226C19.5384 13.8431 19.6903 13.7742 19.8422 13.7046C20.0883 13.8234 20.3344 13.9226 20.5812 14.0112ZM7.57547 39.6415C5.89844 39.1558 4.27117 38.5124 2.71547 37.7198C3.66961 37.0927 5.74805 35.576 6.5932 33.7535C7.17258 34.2084 8.50992 35.0381 11.1143 35.6752C11.07 35.7469 11.0159 35.8235 10.9638 35.8987C8.74055 35.3166 7.47633 34.5804 7.45594 34.5677L7.14938 34.3849L7.00242 34.7133C6.80906 35.1436 6.35555 35.2083 6.10313 35.2083C6.03281 35.2083 5.9857 35.2034 5.97937 35.2027L5.72836 35.1661L5.63695 35.4066C5.44992 35.8973 4.68211 36.5386 4.40086 36.7446L3.93117 37.0891L4.46836 37.3092C4.66805 37.3908 4.72219 37.466 4.725 37.4857C4.73203 37.5342 4.64695 37.6622 4.55625 37.736L4.14703 38.0658L4.62305 38.2859C5.59828 38.7359 6.70289 39.1085 7.8075 39.4158C7.71961 39.5023 7.64367 39.5761 7.57547 39.6415ZM13.2455 37.0216C14.2284 37.1595 15.3176 37.2466 16.5073 37.2466H16.508C16.7555 37.2466 17.0065 37.2424 17.2624 37.2347C17.2795 37.2877 17.3038 37.3381 17.3348 37.3845C17.3974 37.4794 17.4818 37.5581 17.5887 37.6193L15.7943 39.1528C15.7601 39.1513 15.7259 39.1506 15.6916 39.1507C14.8922 39.1507 14.2959 39.4446 14.0098 39.9677C12.9255 39.8294 11.8463 39.6543 10.774 39.4425C11.636 38.6755 12.4607 37.8676 13.2455 37.0216V37.0216ZM5.2657 37.8633C5.33602 37.7304 5.38172 37.5694 5.35711 37.3936C5.33374 37.235 5.25771 37.0889 5.14125 36.9787C5.45695 36.708 5.89219 36.2904 6.13125 35.858C6.67477 35.8502 7.12336 35.6442 7.40602 35.28C7.88203 35.5289 8.9543 36.0316 10.5384 36.4676C9.89086 37.2797 9.01828 38.2008 8.33977 38.8856C7.28227 38.6058 6.21703 38.2683 5.2657 37.8633V37.8633ZM15.2859 40.8227L15.1418 40.8234C14.5364 40.8234 12.5304 40.7742 9.88031 40.2223C9.97313 40.1435 10.0695 40.0627 10.1587 39.9853C12.3089 40.4346 14.0428 40.6273 14.1729 40.642L14.4302 40.6695L14.5097 40.4198C14.6834 39.8813 15.3239 39.8018 15.6909 39.8018C15.7915 39.8018 15.8583 39.8081 15.866 39.8088L16.0024 39.8236L19.1194 37.1602L18.2862 37.1327C18.0077 37.1229 17.8903 37.0603 17.8615 37.0174L18.038 36.5555L17.55 36.5759C17.1942 36.5913 16.8469 36.5991 16.5073 36.5991H16.5066C15.525 36.5991 14.6145 36.5344 13.7728 36.4324L13.9683 36.2018C15.667 36.4289 17.7012 36.5688 20.1572 36.5513C19.5708 37.3739 18.1083 39.1226 15.2859 40.8227V40.8227ZM22.3341 37.7677V39.0509C21.934 39.0509 21.5445 39.0495 21.1634 39.0466L21.0488 37.6024L20.0967 37.6798C20.738 36.9218 21.0115 36.4163 21.0361 36.3705L21.2941 35.8826L20.7492 35.8924C15.5334 35.988 12.1317 35.3665 9.98437 34.676C9.82758 34.0418 9.73687 33.3246 9.73687 32.4872C9.73687 26.7757 13.3868 18.1427 18.2327 14.644C19.0912 15.4744 20.3934 15.8379 21.6309 15.03C21.9023 14.8528 22.1386 14.6208 22.3601 14.374C22.4128 14.3754 22.467 14.3873 22.5204 14.3873C22.6976 14.3873 22.8776 14.3726 23.0569 14.3501C23.284 14.4408 23.5062 14.5322 23.7122 14.6229C24.6987 15.0574 25.541 14.7874 26.1162 14.1884C30.555 16.8743 34.1114 23.9794 35.0473 29.7225C33.018 30.5339 29.7991 31.3256 24.859 31.4648C25.8335 30.908 26.5648 29.9714 26.3018 28.7409C26.0255 27.4402 24.9384 27.0745 23.8127 27.0148C23.8099 26.4038 23.8099 25.7941 23.8141 25.1831C24.1594 25.3357 24.4905 25.5115 24.7915 25.6992C25.323 26.0332 25.804 25.1677 25.2759 24.8337C24.8181 24.5458 24.3294 24.3102 23.8191 24.1312C23.8261 23.4239 23.8296 22.718 23.8296 22.012C23.8303 21.3652 22.8691 21.3652 22.8691 22.012C22.8691 22.6329 22.8649 23.253 22.8593 23.8725C22.3477 23.7834 21.8253 23.7746 21.311 23.8465C21.2274 23.3811 21.1261 22.919 21.0073 22.4613C20.8484 21.8384 19.9202 22.102 20.0812 22.7271C20.1994 23.1764 20.2957 23.6236 20.3752 24.0771C20.3344 24.0926 20.2901 24.1003 20.25 24.1186C18.9478 24.634 18.1533 25.9481 19.106 27.1737C19.5497 27.7446 20.1298 27.9752 20.7647 28.0519C20.7991 28.8977 20.8209 29.7443 20.8455 30.5895C20.4202 30.3131 20.0327 29.9588 19.6819 29.584C19.2473 29.1255 18.5688 29.8336 19.0027 30.2913C19.5926 30.9192 20.212 31.3938 20.8835 31.6976C20.9138 32.4197 20.9566 33.1439 21.027 33.8625C21.0888 34.5002 22.0507 34.5037 21.9881 33.8625C21.9289 33.2409 21.885 32.618 21.8566 31.9943C22.2223 32.0576 22.6062 32.0738 23.014 32.0351C23.0597 32.7002 23.1131 33.3654 23.1891 34.0305C23.2327 34.4116 23.5969 34.5614 23.8655 34.4841L23.8057 35.865C23.3824 35.903 22.9507 35.9381 22.5007 35.9677L21.9649 36.0028L22.2504 36.4641C22.2792 36.5105 22.6034 37.023 23.3269 37.7691H22.3341V37.7677ZM39.8334 33.1397C38.9496 33.5552 37.8316 33.9363 36.6926 34.2689C35.9923 33.5454 35.0965 32.58 34.4278 31.7236C35.9177 31.2722 36.7516 30.8067 37.1278 30.5557C37.4252 30.818 37.819 30.9544 38.2852 30.9537C38.4398 30.9537 38.577 30.9389 38.6824 30.922C39.0199 31.3594 39.5641 31.8642 39.9045 32.1659C39.7434 32.3311 39.6654 32.5139 39.6717 32.7115C39.6773 32.8802 39.7448 33.0237 39.8334 33.1397V33.1397ZM34.8026 35.4502C34.946 35.5767 35.0944 35.7061 35.2455 35.8369C32.3951 36.5927 30.2737 36.675 29.8118 36.6827C26.8601 34.882 25.3301 32.9766 24.7402 32.1188C27.2102 32.0569 29.2521 31.8333 30.9551 31.5253C31.0243 31.6104 31.0944 31.6947 31.1653 31.7784C29.7966 31.9916 28.417 32.1285 27.033 32.1884L26.4656 32.2123L26.7778 32.6897C26.7771 32.6904 26.7138 32.8085 26.2948 32.8901L25.6134 33.023L28.9631 35.7349L29.1192 35.6927C29.1227 35.692 29.418 35.6126 29.7752 35.6126C30.2906 35.6126 30.6429 35.7694 30.8201 36.0759L30.9326 36.27L31.1513 36.2313C32.376 36.008 33.5937 35.7475 34.8026 35.4502V35.4502ZM24.8906 33.3837L24.0905 33.3401C24.0532 32.9407 24.0159 32.5413 23.9878 32.142C24.1284 32.3754 24.4167 32.8141 24.8906 33.3837ZM23.9006 30.8095C23.8545 29.863 23.8266 28.9158 23.817 27.9682C23.9323 27.9724 24.0462 27.983 24.1545 27.9984C25.3976 28.1869 25.7224 29.5692 24.7521 30.3469C24.499 30.5473 24.2072 30.6942 23.9006 30.8095ZM31.2405 35.557C30.9255 35.1682 30.4242 34.9643 29.7759 34.9643C29.5052 34.9643 29.2669 35.0009 29.1164 35.0304L27.0105 33.3239C27.1856 33.2234 27.3037 33.0961 27.3684 32.94C27.3844 32.9012 27.3966 32.8609 27.405 32.8198C29.0742 32.7284 30.4805 32.5617 31.6695 32.3578C32.246 33.0012 33.0933 33.8885 34.2169 34.92C32.8366 35.2484 31.6856 35.4734 31.2405 35.557V35.557ZM22.8551 27.9935C22.8684 29.0123 22.8938 30.034 22.9479 31.0521C22.8572 31.0662 22.7679 31.0838 22.6786 31.0929C22.3763 31.1273 22.0894 31.102 21.8166 31.0331C21.7821 30.0488 21.7596 29.0623 21.7223 28.0772C22.1006 28.0596 22.4838 28.0223 22.8551 27.9935V27.9935ZM21.6738 27.1041C21.6299 26.3315 21.5572 25.5608 21.4559 24.7936C21.9219 24.7295 22.3958 24.7536 22.853 24.8646C22.8479 25.5834 22.8468 26.3023 22.8495 27.0211C22.5408 27.038 22.2476 27.0675 21.9895 27.0907C21.8845 27.0989 21.7792 27.1034 21.6738 27.1041V27.1041ZM20.7091 26.981C20.6494 26.9648 20.5903 26.9522 20.5291 26.9318C20.2478 26.8364 19.9931 26.6757 19.7859 26.4628C19.1855 25.9024 20.0095 25.3526 20.5291 25.0917C20.6107 25.7175 20.667 26.3489 20.7091 26.981V26.981ZM28.4695 40.668C25.4173 39.1085 23.7797 37.3753 23.1293 36.5723C23.5969 36.5372 24.0391 36.495 24.4772 36.4507L29.482 39.6991L40.4578 36.6841C34.7977 40.0957 29.2057 40.6153 28.4695 40.668V40.668ZM37.5342 35.1204C37.4442 35.0304 37.3366 34.9235 37.2094 34.7948C38.4581 34.4166 39.6661 33.9778 40.5668 33.4955L41.1145 33.2009L40.5591 32.9182C40.4346 32.8542 40.313 32.7368 40.3109 32.6925C40.3123 32.6756 40.3615 32.5856 40.5745 32.4633L40.9809 32.2298L40.6195 31.9289C40.6083 31.9198 39.4812 30.9839 39.0853 30.3813L38.9545 30.1845L38.7302 30.2498C38.7281 30.2498 38.5355 30.3054 38.2852 30.3054C37.8984 30.3061 37.6087 30.1795 37.4231 29.9306L37.2178 29.6585L36.9605 29.88C36.9471 29.8912 36.1505 30.5445 34.0137 31.1618C33.9433 31.0604 33.8755 30.9573 33.8105 30.8524C36.4015 30.067 37.7255 29.1164 38.2992 28.5961C39.2203 30.5887 41.4134 32.194 42.3654 32.8233C40.836 33.7488 39.2175 34.5184 37.5342 35.1204" fill="#4A5397"/>
<path d="M31.2051 33.1269C30.5041 32.9364 29.7131 33.0664 29.436 33.4145C29.1611 33.7639 29.5085 34.2041 30.2088 34.396C30.9105 34.5866 31.7008 34.4558 31.9778 34.1071C32.2527 33.7576 31.9068 33.3189 31.2051 33.1269Z" fill="#4A5397"/>
</svg>
