<svg width="25" height="25" viewBox="0 0 25 25" fill="none" xmlns="http://www.w3.org/2000/svg">
<path d="M20.7289 13.1876C20.5619 12.9975 20.4698 12.7531 20.4698 12.5001C20.4698 12.2471 20.5619 12.0027 20.7289 11.8126L22.0622 10.3126C22.2091 10.1487 22.3003 9.94251 22.3228 9.72356C22.3453 9.5046 22.2978 9.28416 22.1872 9.09386L20.1039 5.4897C19.9944 5.29962 19.8277 5.14894 19.6276 5.05916C19.4274 4.96938 19.204 4.94507 18.9893 4.9897L17.0309 5.38553C16.7818 5.43702 16.5223 5.39552 16.3017 5.26886C16.081 5.14221 15.9143 4.93916 15.833 4.69803L15.1976 2.79178C15.1277 2.58488 14.9946 2.40518 14.817 2.27807C14.6394 2.15097 14.4264 2.08288 14.208 2.08345H10.0414C9.8142 2.07159 9.58941 2.13441 9.40132 2.26232C9.21322 2.39022 9.07217 2.57618 8.99969 2.79178L8.41635 4.69803C8.33511 4.93916 8.16841 5.14221 7.94772 5.26886C7.72704 5.39552 7.46762 5.43702 7.21844 5.38553L5.20802 4.9897C5.00443 4.96093 4.79688 4.99305 4.61151 5.08203C4.42614 5.17101 4.27125 5.31285 4.16636 5.4897L2.08302 9.09386C1.96965 9.28204 1.91867 9.50125 1.93738 9.72014C1.95609 9.93903 2.04352 10.1464 2.18719 10.3126L3.5101 11.8126C3.6771 12.0027 3.7692 12.2471 3.7692 12.5001C3.7692 12.7531 3.6771 12.9975 3.5101 13.1876L2.18719 14.6876C2.04352 14.8538 1.95609 15.0612 1.93738 15.2801C1.91867 15.499 1.96965 15.7182 2.08302 15.9064L4.16636 19.5105C4.27583 19.7006 4.44252 19.8513 4.64266 19.9411C4.8428 20.0308 5.06617 20.0552 5.28094 20.0105L7.23927 19.6147C7.48846 19.5632 7.74787 19.6047 7.96856 19.7314C8.18924 19.858 8.35594 20.0611 8.43719 20.3022L9.0726 22.2084C9.14508 22.4241 9.28614 22.61 9.47424 22.7379C9.66233 22.8658 9.88712 22.9286 10.1143 22.9168H14.2809C14.4993 22.9173 14.7123 22.8493 14.8899 22.7222C15.0675 22.595 15.2006 22.4153 15.2705 22.2084L15.9059 20.3022C15.9872 20.0611 16.1539 19.858 16.3746 19.7314C16.5953 19.6047 16.8547 19.5632 17.1039 19.6147L19.0622 20.0105C19.277 20.0552 19.5003 20.0308 19.7005 19.9411C19.9006 19.8513 20.0673 19.7006 20.1768 19.5105L22.2601 15.9064C22.3707 15.7161 22.4182 15.4956 22.3957 15.2767C22.3733 15.0577 22.282 14.8515 22.1351 14.6876L20.7289 13.1876ZM19.1768 14.5834L20.0101 15.5209L18.6768 17.8334L17.4476 17.5834C16.6974 17.4301 15.917 17.5575 15.2545 17.9416C14.592 18.3256 14.0936 18.9395 13.8539 19.6668L13.458 20.8334H10.7914L10.4164 19.6459C10.1766 18.9187 9.67821 18.3048 9.01574 17.9207C8.35326 17.5367 7.57283 17.4093 6.82261 17.5626L5.59344 17.8126L4.23927 15.5105L5.0726 14.573C5.58506 14.0001 5.86837 13.2584 5.86837 12.4897C5.86837 11.721 5.58506 10.9793 5.0726 10.4064L4.23927 9.46886L5.5726 7.1772L6.80177 7.4272C7.552 7.58055 8.33243 7.45311 8.9949 7.06907C9.65738 6.68503 10.1558 6.07111 10.3955 5.34386L10.7914 4.16678H13.458L13.8539 5.35428C14.0936 6.08153 14.592 6.69544 15.2545 7.07949C15.917 7.46353 16.6974 7.59097 17.4476 7.43761L18.6768 7.18761L20.0101 9.50011L19.1768 10.4376C18.6701 11.0092 18.3903 11.7467 18.3903 12.5105C18.3903 13.2744 18.6701 14.0118 19.1768 14.5834ZM12.1247 8.33345C11.3006 8.33345 10.495 8.57782 9.80981 9.03566C9.12461 9.4935 8.59056 10.1442 8.27519 10.9056C7.95983 11.667 7.87731 12.5047 8.03808 13.313C8.19885 14.1212 8.59569 14.8637 9.17841 15.4464C9.76113 16.0291 10.5036 16.4259 11.3118 16.5867C12.1201 16.7475 12.9578 16.665 13.7192 16.3496C14.4806 16.0342 15.1313 15.5002 15.5891 14.815C16.047 14.1298 16.2914 13.3242 16.2914 12.5001C16.2914 11.395 15.8524 10.3352 15.071 9.55384C14.2896 8.77243 13.2298 8.33345 12.1247 8.33345ZM12.1247 14.5834C11.7126 14.5834 11.3099 14.4613 10.9672 14.2323C10.6246 14.0034 10.3576 13.6781 10.1999 13.2974C10.0423 12.9167 10.001 12.4978 10.0814 12.0937C10.1618 11.6895 10.3602 11.3183 10.6515 11.027C10.9429 10.7356 11.3141 10.5372 11.7183 10.4568C12.1224 10.3764 12.5413 10.4177 12.9219 10.5754C13.3026 10.733 13.628 11.0001 13.8569 11.3427C14.0858 11.6853 14.208 12.0881 14.208 12.5001C14.208 13.0526 13.9885 13.5826 13.5978 13.9733C13.2071 14.364 12.6772 14.5834 12.1247 14.5834Z" fill="#4A5397"/>
</svg>
