<svg width="30" height="30" viewBox="0 0 30 30" fill="none" xmlns="http://www.w3.org/2000/svg">
<path d="M27.5 2.5H2.5C2.16848 2.5 1.85054 2.6317 1.61612 2.86612C1.3817 3.10054 1.25 3.41848 1.25 3.75V13.75C1.25 14.0815 1.3817 14.3995 1.61612 14.6339C1.85054 14.8683 2.16848 15 2.5 15H6.25V26.25C6.25 26.5815 6.3817 26.8995 6.61612 27.1339C6.85054 27.3683 7.16848 27.5 7.5 27.5H22.5C22.8315 27.5 23.1495 27.3683 23.3839 27.1339C23.6183 26.8995 23.75 26.5815 23.75 26.25V15H27.5C27.8315 15 28.1495 14.8683 28.3839 14.6339C28.6183 14.3995 28.75 14.0815 28.75 13.75V3.75C28.75 3.41848 28.6183 3.10054 28.3839 2.86612C28.1495 2.6317 27.8315 2.5 27.5 2.5V2.5ZM8.75 25V22.5C9.41304 22.5 10.0489 22.7634 10.5178 23.2322C10.9866 23.7011 11.25 24.337 11.25 25H8.75ZM21.25 25H18.75C18.75 24.337 19.0134 23.7011 19.4822 23.2322C19.9511 22.7634 20.587 22.5 21.25 22.5V25ZM21.25 20C19.9239 20 18.6521 20.5268 17.7145 21.4645C16.7768 22.4021 16.25 23.6739 16.25 25H13.75C13.75 23.6739 13.2232 22.4021 12.2855 21.4645C11.3479 20.5268 10.0761 20 8.75 20V10H21.25V20ZM26.25 12.5H23.75V8.75C23.75 8.41848 23.6183 8.10054 23.3839 7.86612C23.1495 7.6317 22.8315 7.5 22.5 7.5H7.5C7.16848 7.5 6.85054 7.6317 6.61612 7.86612C6.3817 8.10054 6.25 8.41848 6.25 8.75V12.5H3.75V5H26.25V12.5ZM15 18.75C15.7417 18.75 16.4667 18.5301 17.0834 18.118C17.7001 17.706 18.1807 17.1203 18.4645 16.4351C18.7484 15.7498 18.8226 14.9958 18.6779 14.2684C18.5333 13.541 18.1761 12.8728 17.6517 12.3483C17.1272 11.8239 16.459 11.4667 15.7316 11.3221C15.0042 11.1774 14.2502 11.2516 13.5649 11.5355C12.8797 11.8193 12.294 12.2999 11.882 12.9166C11.4699 13.5333 11.25 14.2583 11.25 15C11.25 15.9946 11.6451 16.9484 12.3483 17.6516C13.0516 18.3549 14.0054 18.75 15 18.75ZM15 13.75C15.2472 13.75 15.4889 13.8233 15.6945 13.9607C15.9 14.098 16.0602 14.2932 16.1548 14.5216C16.2495 14.7501 16.2742 15.0014 16.226 15.2439C16.1778 15.4863 16.0587 15.7091 15.8839 15.8839C15.7091 16.0587 15.4863 16.1777 15.2439 16.226C15.0014 16.2742 14.7501 16.2495 14.5216 16.1548C14.2932 16.0602 14.098 15.9 13.9607 15.6945C13.8233 15.4889 13.75 15.2472 13.75 15C13.75 14.6685 13.8817 14.3505 14.1161 14.1161C14.3505 13.8817 14.6685 13.75 15 13.75V13.75Z" fill="#4A5397"/>
</svg>
