<svg width="35" height="35" viewBox="0 0 35 35" fill="none" xmlns="http://www.w3.org/2000/svg">
<path d="M6.57896 28H28.419C30.0684 25.942 31.1029 23.4599 31.403 20.8396C31.7032 18.2193 31.257 15.5675 30.1157 13.1898C28.9744 10.8121 27.1845 8.80522 24.9523 7.40048C22.7201 5.99574 20.1364 5.25027 17.499 5.25C14.8615 5.25027 12.2778 5.99574 10.0456 7.40048C7.81343 8.80522 6.02355 10.8121 4.88225 13.1898C3.74095 15.5675 3.29468 18.2193 3.59487 20.8396C3.89506 23.4599 4.92949 25.942 6.57896 28V28ZM17.499 7C18.4615 7 19.249 7.7875 19.249 8.75C19.249 9.7125 18.4615 10.5 17.499 10.5C16.5365 10.5 15.749 9.7125 15.749 8.75C15.749 7.7875 16.5365 7 17.499 7ZM10.499 10.5C11.4615 10.5 12.249 11.2875 12.249 12.25C12.249 13.2125 11.4615 14 10.499 14C9.53646 14 8.74896 13.2125 8.74896 12.25C8.74896 11.2875 9.53646 10.5 10.499 10.5ZM24.499 10.5C25.4615 10.5 26.249 11.2875 26.249 12.25C26.249 13.2125 25.4615 14 24.499 14C23.5365 14 22.749 13.2125 22.749 12.25C22.749 11.2875 23.5365 10.5 24.499 10.5ZM15.1015 20.2125L20.999 12.25V22.75C20.999 24.675 19.424 26.25 17.499 26.25C15.574 26.25 13.999 24.675 13.999 22.75C13.999 21.7525 14.419 20.86 15.1015 20.2125V20.2125ZM6.99896 17.5C7.96146 17.5 8.74896 18.2875 8.74896 19.25C8.74896 20.2125 7.96146 21 6.99896 21C6.03646 21 5.24896 20.2125 5.24896 19.25C5.24896 18.2875 6.03646 17.5 6.99896 17.5ZM27.999 17.5C28.9615 17.5 29.749 18.2875 29.749 19.25C29.749 20.2125 28.9615 21 27.999 21C27.0365 21 26.249 20.2125 26.249 19.25C26.249 18.2875 27.0365 17.5 27.999 17.5ZM19.249 22.75C19.249 21.7875 18.4615 21 17.499 21C16.5365 21 15.749 21.7875 15.749 22.75C15.749 23.7125 16.5365 24.5 17.499 24.5C18.4615 24.5 19.249 23.7125 19.249 22.75Z" fill="#4A5397"/>
</svg>
