<svg width="35" height="35" viewBox="0 0 35 35" fill="none" xmlns="http://www.w3.org/2000/svg">
<path d="M17.4994 2.91797C14.615 2.91797 11.7955 3.77327 9.39729 5.3757C6.99907 6.97814 5.12989 9.25575 4.02611 11.9205C2.92233 14.5853 2.63354 17.5175 3.19624 20.3464C3.75894 23.1753 5.14787 25.7738 7.18738 27.8133C9.2269 29.8528 11.8254 31.2417 14.6543 31.8044C17.4832 32.3671 20.4154 32.0783 23.0802 30.9745C25.7449 29.8708 28.0225 28.0016 29.625 25.6034C31.2274 23.2051 32.0827 20.3856 32.0827 17.5013C32.0827 15.5862 31.7055 13.6898 30.9726 11.9205C30.2397 10.1512 29.1655 8.54352 27.8113 7.18933C26.4571 5.83514 24.8495 4.76094 23.0802 4.02806C21.3108 3.29518 19.4145 2.91797 17.4994 2.91797V2.91797ZM17.4994 29.168C15.1919 29.168 12.9363 28.4837 11.0177 27.2018C9.09913 25.9198 7.60378 24.0977 6.72076 21.9659C5.83774 19.8341 5.6067 17.4884 6.05686 15.2252C6.50702 12.9621 7.61816 10.8833 9.24978 9.25172C10.8814 7.62011 12.9602 6.50897 15.2233 6.05881C17.4864 5.60865 19.8322 5.83969 21.964 6.72271C24.0958 7.60573 25.9179 9.10108 27.1998 11.0196C28.4818 12.9382 29.166 15.1939 29.166 17.5013C29.166 20.5955 27.9369 23.563 25.7489 25.7509C23.561 27.9388 20.5935 29.168 17.4994 29.168V29.168Z" fill="#4A5397"/>
<path d="M17.4987 10.2109C16.0565 10.2109 14.6468 10.6386 13.4477 11.4398C12.2486 12.241 11.314 13.3798 10.7621 14.7122C10.2102 16.0446 10.0658 17.5107 10.3471 18.9251C10.6285 20.3396 11.323 21.6388 12.3427 22.6586C13.3625 23.6783 14.6617 24.3728 16.0762 24.6542C17.4906 24.9355 18.9567 24.7911 20.2891 24.2392C21.6215 23.6873 22.7603 22.7527 23.5615 21.5536C24.3627 20.3545 24.7904 18.9448 24.7904 17.5026C24.7904 15.5687 24.0221 13.7141 22.6547 12.3466C21.2872 10.9792 19.4326 10.2109 17.4987 10.2109V10.2109Z" fill="#FF0000"/>
</svg>
