<svg width="37" height="37" viewBox="0 0 37 37" fill="none" xmlns="http://www.w3.org/2000/svg">
<path d="M12.4877 20.5673L16.8506 16.2044L6.02811 5.39729C4.87317 6.55556 4.22461 8.12452 4.22461 9.76021C4.22461 11.3959 4.87317 12.9649 6.02811 14.1231L12.4877 20.5673V20.5673ZM22.9402 17.7769C25.2989 18.8715 28.6135 18.1006 31.0648 15.6494C34.0094 12.7048 34.5798 8.48063 32.3135 6.21438C30.0627 3.96354 25.8385 4.51854 22.8785 7.46313C20.4273 9.91438 19.6564 13.229 20.751 15.5877L5.70436 30.6344L7.87811 32.8081L18.5002 22.2169L29.1069 32.8235L31.2806 30.6498L20.6739 20.0431L22.9402 17.7769V17.7769Z" fill="#4A5397"/>
</svg>
