<svg width="33" height="37" viewBox="0 0 33 37" fill="none" xmlns="http://www.w3.org/2000/svg">
<path d="M16.357 5.97396C15.1741 5.97396 14.167 6.39149 13.3357 7.22656C12.5045 8.06163 12.0889 9.07335 12.0889 10.2617C12.0889 11.4501 12.5045 12.4618 13.3357 13.2969C14.167 14.1319 15.1741 14.5495 16.357 14.5495C17.5399 14.5495 18.547 14.1319 19.3782 13.2969C20.2095 12.4618 20.6251 11.4501 20.6251 10.2617C20.6251 9.07335 20.2095 8.06163 19.3782 7.22656C18.547 6.39149 17.5399 5.97396 16.357 5.97396ZM16.4049 24.474C13.5915 24.474 10.81 25.0039 8.06055 26.0638C5.31106 27.1237 3.93631 28.0391 3.93631 28.8099V31.026H28.8735V28.8099C28.8735 28.0391 27.4988 27.1237 24.7493 26.0638C21.9998 25.0039 19.2184 24.474 16.4049 24.474ZM16.357 2.02344C18.6269 2.02344 20.5611 2.82639 22.1597 4.43229C23.7582 6.03819 24.5575 7.98134 24.5575 10.2617C24.5575 12.5421 23.7582 14.4852 22.1597 16.0911C20.5611 17.697 18.6269 18.5 16.357 18.5C14.087 18.5 12.1528 17.697 10.5543 16.0911C8.95573 14.4852 8.15646 12.5421 8.15646 10.2617C8.15646 7.98134 8.95573 6.03819 10.5543 4.43229C12.1528 2.82639 14.087 2.02344 16.357 2.02344ZM16.357 20.5234C18.3711 20.5234 20.5931 20.8125 23.0229 21.3906C25.4527 21.9687 27.6746 22.9162 29.6888 24.2331C31.703 25.5499 32.71 27.0755 32.71 28.8099V34.9766H0.00390625V28.8099C0.00390625 27.0755 1.01099 25.5499 3.02515 24.2331C5.03931 22.9162 7.26128 21.9687 9.69106 21.3906C12.1208 20.8125 14.3428 20.5234 16.357 20.5234Z" fill="black"/>
</svg>
